<?xml version="1.0" standalone="no"?>
<!DOCTYPE svg PUBLIC "-//W3C//DTD SVG 20010904//EN"
 "http://www.w3.org/TR/2001/REC-SVG-20010904/DTD/svg10.dtd">
<svg version="1.0" xmlns="http://www.w3.org/2000/svg"
 width="512.000000pt" height="512.000000pt" viewBox="0 0 512.000000 512.000000"
 preserveAspectRatio="xMidYMid meet">
<metadata>
Created by potrace 1.11, written by Peter Selinger 2001-2013
</metadata>
<g transform="translate(0.000000,512.000000) scale(0.100000,-0.100000)"
fill="#000000" stroke="none">
<path d="M4096 3588 c-29 -166 -82 -468 -121 -688 -20 -113 -45 -254 -56 -315
-11 -60 -26 -148 -34 -195 -8 -47 -24 -134 -35 -195 -10 -60 -35 -202 -55
-315 -20 -113 -42 -239 -50 -280 -8 -41 -17 -94 -20 -118 l-7 -43 59 3 58 3
21 110 c11 61 31 169 43 240 13 72 29 164 36 205 18 96 74 417 120 680 20 113
45 255 56 315 11 61 26 148 34 195 30 172 56 317 70 393 22 112 24 107 -43
107 l-57 0 -19 -102z"/>
<path d="M1106 3222 c-3 -5 -12 -49 -20 -98 -8 -49 -22 -129 -30 -179 -9 -49
-23 -128 -31 -175 -9 -47 -22 -121 -30 -165 -8 -44 -24 -134 -35 -200 -37
-211 -51 -288 -70 -390 -10 -55 -15 -103 -11 -108 4 -4 90 -6 192 -5 l184 3
12 70 c7 39 21 115 31 170 l18 100 98 0 98 0 87 -170 86 -170 203 -3 c122 -1
202 1 202 7 0 11 -188 381 -201 395 -5 5 18 25 53 45 134 79 232 213 263 360
53 252 -45 416 -295 494 -59 19 -97 21 -431 25 -222 2 -369 0 -373 -6z m642
-321 c69 -35 87 -75 76 -163 -9 -63 -52 -123 -114 -158 -41 -22 -59 -24 -194
-28 l-149 -5 6 25 c4 14 11 56 17 94 5 38 17 105 25 149 8 44 14 86 15 93 0 9
35 12 140 12 118 0 147 -3 178 -19z"/>
<path d="M2477 3148 c-9 -46 -26 -137 -37 -203 -12 -66 -30 -167 -40 -225 -10
-58 -26 -145 -34 -195 -21 -118 -53 -300 -71 -400 -30 -166 -35 -199 -35 -212
0 -10 38 -13 190 -13 105 0 190 1 190 3 1 7 48 284 56 323 4 21 9 22 206 27
173 4 212 8 267 26 107 36 188 81 254 141 118 109 177 247 176 410 0 65 -5
108 -17 137 -46 114 -135 188 -275 232 -80 24 -90 25 -448 29 l-366 3 -16 -83z
m660 -249 c57 -28 76 -65 71 -139 -5 -73 -35 -128 -88 -164 -53 -36 -101 -45
-247 -45 l-113 -1 0 33 c0 17 7 59 14 92 8 33 19 94 25 135 18 121 3 110 159
110 117 0 141 -3 179 -21z"/>
</g>
</svg>
