<?xml version="1.0" standalone="no"?>
<!DOCTYPE svg PUBLIC "-//W3C//DTD SVG 20010904//EN"
 "http://www.w3.org/TR/2001/REC-SVG-20010904/DTD/svg10.dtd">
<svg version="1.0" xmlns="http://www.w3.org/2000/svg"
 width="512.000000pt" height="512.000000pt" viewBox="0 0 512.000000 512.000000"
 preserveAspectRatio="xMidYMid meet">
<metadata>
Created by potrace 1.11, written by Peter Selinger 2001-2013
</metadata>
<g transform="translate(0.000000,512.000000) scale(0.100000,-0.100000)"
fill="#000000" stroke="none">
<path d="M4560 3994 c0 -3 -112 -644 -250 -1424 -137 -781 -250 -1424 -250
-1430 0 -6 27 -10 68 -10 l68 0 248 1408 c136 774 250 1419 253 1435 l6 27
-72 0 c-39 0 -71 -3 -71 -6z"/>
<path d="M696 3398 c-3 -7 -68 -375 -146 -818 -78 -443 -144 -817 -147 -832
l-5 -28 241 0 241 0 5 23 c3 12 19 101 35 197 17 96 33 187 36 203 l6 27 126
0 127 0 113 -225 112 -225 255 0 c140 0 255 3 255 8 0 4 -58 122 -130 263
l-130 256 83 51 c253 154 392 457 333 725 -40 177 -191 313 -403 364 -93 22
-1000 32 -1007 11z m822 -392 c104 -44 138 -165 83 -291 -39 -87 -110 -141
-219 -164 -77 -16 -352 -15 -352 2 0 7 18 114 40 237 22 124 40 229 40 234 0
4 82 6 183 4 145 -4 191 -8 225 -22z"/>
<path d="M2330 2593 c-79 -450 -146 -830 -148 -845 l-4 -28 240 0 241 0 6 33
c3 17 20 115 38 217 l33 185 234 6 c259 7 353 24 491 87 202 91 353 261 407
458 79 285 -10 519 -241 628 -141 67 -160 69 -682 73 l-471 4 -144 -818z m924
422 c107 -28 150 -82 148 -185 -1 -104 -47 -189 -128 -236 -71 -42 -142 -54
-315 -54 l-155 0 37 213 c21 116 41 227 44 245 l6 32 152 0 c104 0 171 -5 211
-15z"/>
</g>
</svg>
